<svg width="14" height="16" viewBox="0 0 14 16" fill="none" xmlns="http://www.w3.org/2000/svg">
<path d="M4.35103 15.9998C1.96975 15.9861 0 11.1251 0 8.64954C0 4.60566 3.03359 3.72035 4.20272 3.72035C4.72959 3.72035 5.29219 3.92725 5.78841 4.11035C6.13541 4.23807 6.49428 4.36991 6.69388 4.36991C6.81334 4.36991 7.09488 4.25775 7.34344 4.15935C7.87353 3.94832 8.53316 3.68604 9.30128 3.68604C9.30266 3.68604 9.3045 3.68604 9.30584 3.68604C9.87941 3.68604 11.6185 3.81191 12.664 5.38204L12.9089 5.75007L12.5564 6.01604C12.0529 6.39597 11.1342 7.08904 11.1342 8.46188C11.1342 10.0878 12.1747 10.7132 12.6745 11.0139C12.8952 11.1467 13.1236 11.2835 13.1236 11.5829C13.1236 11.7784 11.5635 15.9756 9.29806 15.9756C8.74372 15.9756 8.35188 15.809 8.00625 15.662C7.65653 15.5133 7.35484 15.3851 6.85634 15.3851C6.60366 15.3851 6.28413 15.5046 5.94584 15.6314C5.48356 15.8039 4.96031 15.9998 4.36659 15.9998H4.35103Z" fill="white"/>
<path d="M9.54106 0C9.60006 2.12737 8.07865 3.60325 6.55902 3.51069C6.30861 1.81297 8.07846 0 9.54106 0Z" fill="white"/>
</svg>
