<svg width="55" height="18" viewBox="0 0 55 18" fill="none" xmlns="http://www.w3.org/2000/svg">
<path d="M3.03 4.38H4.08L2.652 0.18H1.428L0 4.38H1.05L1.26 3.72H2.82L3.03 4.38ZM1.548 2.82L2.04 1.278L2.532 2.82H1.548Z" fill="white"/>
<path d="M6.20494 1.38L5.58094 3.282L4.95694 1.38H3.96094L5.07094 4.38H6.09094L7.20094 1.38H6.20494Z" fill="white"/>
<path d="M9.59198 1.38V1.662C9.39398 1.434 9.09998 1.296 8.69798 1.296C7.91198 1.296 7.26398 1.986 7.26398 2.88C7.26398 3.774 7.91198 4.464 8.69798 4.464C9.09998 4.464 9.39398 4.326 9.59198 4.098V4.38H10.492V1.38H9.59198ZM8.87799 3.612C8.46398 3.612 8.16398 3.33 8.16398 2.88C8.16398 2.43 8.46398 2.148 8.87799 2.148C9.29199 2.148 9.59198 2.43 9.59198 2.88C9.59198 3.33 9.29199 3.612 8.87799 3.612Z" fill="white"/>
<path d="M11.1523 4.38H12.0523V0H11.1523V4.38Z" fill="white"/>
<path d="M13.1609 1.116C13.4549 1.116 13.7009 0.87 13.7009 0.576C13.7009 0.282 13.4549 0.0359999 13.1609 0.0359999C12.8669 0.0359999 12.6209 0.282 12.6209 0.576C12.6209 0.87 12.8669 1.116 13.1609 1.116ZM12.7109 4.38H13.6109V1.38H12.7109V4.38Z" fill="white"/>
<path d="M16.0635 1.296C15.6615 1.296 15.3675 1.434 15.1695 1.662V0.18H14.2695V4.38H15.1695V4.098C15.3675 4.326 15.6615 4.464 16.0635 4.464C16.8495 4.464 17.4975 3.774 17.4975 2.88C17.4975 1.986 16.8495 1.296 16.0635 1.296ZM15.8835 3.612C15.4695 3.612 15.1695 3.33 15.1695 2.88C15.1695 2.43 15.4695 2.148 15.8835 2.148C16.2975 2.148 16.5975 2.43 16.5975 2.88C16.5975 3.33 16.2975 3.612 15.8835 3.612Z" fill="white"/>
<path d="M18.0077 4.38H18.9077V0H18.0077V4.38Z" fill="white"/>
<path d="M20.3703 3.24H22.5003C22.5243 3.126 22.5363 3.006 22.5363 2.88C22.5363 1.974 21.8883 1.296 21.0123 1.296C20.0643 1.296 19.4163 1.986 19.4163 2.88C19.4163 3.774 20.0523 4.464 21.0783 4.464C21.6483 4.464 22.0923 4.254 22.3863 3.846L21.6663 3.432C21.5463 3.564 21.3363 3.66 21.0903 3.66C20.7603 3.66 20.4843 3.552 20.3703 3.24ZM20.3523 2.568C20.4363 2.262 20.6643 2.094 21.0063 2.094C21.2763 2.094 21.5463 2.22 21.6423 2.568H20.3523Z" fill="white"/>
<path d="M25.9868 4.464C26.8688 4.464 27.5768 3.774 27.5768 2.88C27.5768 1.986 26.8688 1.296 25.9868 1.296C25.1048 1.296 24.3968 1.986 24.3968 2.88C24.3968 3.774 25.1048 4.464 25.9868 4.464ZM25.9868 3.588C25.5968 3.588 25.2968 3.306 25.2968 2.88C25.2968 2.454 25.5968 2.172 25.9868 2.172C26.3768 2.172 26.6768 2.454 26.6768 2.88C26.6768 3.306 26.3768 3.588 25.9868 3.588Z" fill="white"/>
<path d="M29.8439 1.296C29.4479 1.296 29.1479 1.44 28.9859 1.662V1.38H28.0859V4.38H28.9859V2.742C28.9859 2.316 29.2139 2.124 29.5439 2.124C29.8319 2.124 30.0659 2.298 30.0659 2.67V4.38H30.9659V2.538C30.9659 1.728 30.4499 1.296 29.8439 1.296Z" fill="white"/>
<path d="M34.8419 2.244V1.38H34.2239V0.54L33.3239 0.81V1.38H32.8439V2.244H33.3239V3.306C33.3239 4.146 33.6659 4.5 34.8419 4.38V3.564C34.4459 3.588 34.2239 3.564 34.2239 3.306V2.244H34.8419Z" fill="white"/>
<path d="M37.1095 1.296C36.7135 1.296 36.4135 1.44 36.2515 1.662V0.18H35.3515V4.38H36.2515V2.742C36.2515 2.316 36.4795 2.124 36.8095 2.124C37.0975 2.124 37.3315 2.298 37.3315 2.67V4.38H38.2315V2.538C38.2315 1.728 37.7155 1.296 37.1095 1.296Z" fill="white"/>
<path d="M39.6535 3.24H41.7835C41.8075 3.126 41.8195 3.006 41.8195 2.88C41.8195 1.974 41.1715 1.296 40.2955 1.296C39.3475 1.296 38.6995 1.986 38.6995 2.88C38.6995 3.774 39.3355 4.464 40.3615 4.464C40.9315 4.464 41.3755 4.254 41.6695 3.846L40.9495 3.432C40.8295 3.564 40.6195 3.66 40.3735 3.66C40.0435 3.66 39.7675 3.552 39.6535 3.24ZM39.6355 2.568C39.7195 2.262 39.9475 2.094 40.2895 2.094C40.5595 2.094 40.8295 2.22 40.9255 2.568H39.6355Z" fill="white"/>
<path d="M5.05 15.38H6.8L4.42 8.38H2.38L0 15.38H1.75L2.1 14.28H4.7L5.05 15.38ZM2.58 12.78L3.4 10.21L4.22 12.78H2.58Z" fill="white"/>
<path d="M10.3369 10.24C9.66687 10.24 9.17688 10.47 8.84688 10.85V10.38H7.34688V17.38H8.84688V14.91C9.17688 15.29 9.66687 15.52 10.3369 15.52C11.6469 15.52 12.7269 14.37 12.7269 12.88C12.7269 11.39 11.6469 10.24 10.3369 10.24ZM10.0369 14.1C9.34688 14.1 8.84688 13.63 8.84688 12.88C8.84688 12.13 9.34688 11.66 10.0369 11.66C10.7269 11.66 11.2269 12.13 11.2269 12.88C11.2269 13.63 10.7269 14.1 10.0369 14.1Z" fill="white"/>
<path d="M16.5673 10.24C15.8973 10.24 15.4073 10.47 15.0773 10.85V10.38H13.5773V17.38H15.0773V14.91C15.4073 15.29 15.8973 15.52 16.5673 15.52C17.8773 15.52 18.9573 14.37 18.9573 12.88C18.9573 11.39 17.8773 10.24 16.5673 10.24ZM16.2673 14.1C15.5773 14.1 15.0773 13.63 15.0773 12.88C15.0773 12.13 15.5773 11.66 16.2673 11.66C16.9573 11.66 17.4573 12.13 17.4573 12.88C17.4573 13.63 16.9573 14.1 16.2673 14.1Z" fill="white"/>
<path d="M19.8078 15.38H21.3078V8.08H19.8078V15.38Z" fill="white"/>
<path d="M23.7455 13.48H27.2955C27.3355 13.29 27.3555 13.09 27.3555 12.88C27.3555 11.37 26.2755 10.24 24.8155 10.24C23.2355 10.24 22.1555 11.39 22.1555 12.88C22.1555 14.37 23.2155 15.52 24.9255 15.52C25.8755 15.52 26.6155 15.17 27.1055 14.49L25.9055 13.8C25.7055 14.02 25.3555 14.18 24.9455 14.18C24.3955 14.18 23.9355 14 23.7455 13.48ZM23.7155 12.36C23.8555 11.85 24.2355 11.57 24.8055 11.57C25.2555 11.57 25.7055 11.78 25.8655 12.36H23.7155Z" fill="white"/>
<path d="M33.2062 15.52C34.7262 15.52 35.8063 14.72 35.8063 13.37C35.8063 11.89 34.6163 11.52 33.5563 11.2C32.4663 10.87 32.2962 10.65 32.2962 10.33C32.2962 10.05 32.5462 9.8 33.0462 9.8C33.6862 9.8 34.0162 10.11 34.2562 10.61L35.6063 9.82C35.0963 8.79 34.1962 8.24 33.0462 8.24C31.8362 8.24 30.6963 9.02 30.6963 10.37C30.6963 11.71 31.7162 12.21 32.7562 12.5C33.8062 12.79 34.2062 12.96 34.2062 13.39C34.2062 13.66 34.0162 13.96 33.2562 13.96C32.4662 13.96 32.0362 13.57 31.7862 12.99L30.4062 13.79C30.7963 14.82 31.7362 15.52 33.2062 15.52Z" fill="white"/>
<path d="M39.3394 11.82V10.38H38.3094V8.98L36.8094 9.43V10.38H36.0094V11.82H36.8094V13.59C36.8094 14.99 37.3794 15.58 39.3394 15.38V14.02C38.6794 14.06 38.3094 14.02 38.3094 13.59V11.82H39.3394Z" fill="white"/>
<path d="M42.491 15.52C43.961 15.52 45.141 14.37 45.141 12.88C45.141 11.39 43.961 10.24 42.491 10.24C41.021 10.24 39.841 11.39 39.841 12.88C39.841 14.37 41.021 15.52 42.491 15.52ZM42.491 14.06C41.841 14.06 41.341 13.59 41.341 12.88C41.341 12.17 41.841 11.7 42.491 11.7C43.141 11.7 43.641 12.17 43.641 12.88C43.641 13.59 43.141 14.06 42.491 14.06Z" fill="white"/>
<path d="M47.4895 11.27V10.38H45.9895V15.38H47.4895V13.12C47.4895 12.13 48.3695 11.88 48.9895 11.98V10.28C48.3595 10.28 47.6895 10.6 47.4895 11.27Z" fill="white"/>
<path d="M50.8841 13.48H54.4341C54.4741 13.29 54.4941 13.09 54.4941 12.88C54.4941 11.37 53.4141 10.24 51.9541 10.24C50.3741 10.24 49.2941 11.39 49.2941 12.88C49.2941 14.37 50.3541 15.52 52.0641 15.52C53.0141 15.52 53.7541 15.17 54.2441 14.49L53.0441 13.8C52.8441 14.02 52.4941 14.18 52.0841 14.18C51.5341 14.18 51.0741 14 50.8841 13.48ZM50.8541 12.36C50.9941 11.85 51.3741 11.57 51.9441 11.57C52.3941 11.57 52.8441 11.78 53.0041 12.36H50.8541Z" fill="white"/>
</svg>
