<svg width="111" height="78" viewBox="0 0 111 78" fill="none" xmlns="http://www.w3.org/2000/svg">
<path d="M22.5282 30.2248C22.5282 40.1659 30.5871 48.2248 40.5282 48.2248H66.9023C69.6637 48.2248 71.9023 45.9862 71.9023 43.2248L71.9023 10C71.9023 4.47716 67.4251 -4.81208e-07 61.9023 0L27.5282 2.99503e-06C24.7668 3.23563e-06 22.5282 2.23858 22.5282 5L22.5282 30.2248Z" fill="#FFF1DA"/>
<path d="M70.5039 44.2303C69.1626 44.5297 67.8561 45.0844 66.6657 45.8593C63.5642 47.829 61.7598 50.6405 62.6356 52.1386C63.5115 53.6366 66.7357 53.2535 69.8371 51.2838C71.0436 50.5363 72.1154 49.5808 72.9865 48.4766C73.3908 47.9431 73.4633 47.2783 73.1718 46.7814L72.034 44.8353C71.7446 44.3368 71.1441 44.0997 70.5039 44.2303Z" fill="#D5D6DB"/>
<path d="M62.7156 17.6643C61.743 17.8815 60.7956 18.2839 59.9323 18.8459C57.6839 20.2737 56.3748 22.3124 57.0094 23.3977C57.6439 24.483 59.9827 24.205 62.2308 22.7773C63.1056 22.2349 63.8827 21.5418 64.5145 20.741C64.8073 20.3543 64.8597 19.8727 64.6484 19.5124L63.8246 18.1033C63.6149 17.742 63.1798 17.5697 62.7156 17.6643Z" fill="#D5D6DB"/>
<path d="M50.0618 18.7768C49.8453 18.7528 49.6145 18.8103 49.4142 18.9377L44.133 22.292C43.6912 22.5717 43.5145 23.1104 43.7386 23.4954C43.7898 23.5836 43.8599 23.659 43.9451 23.717L56.9617 32.6582L74.5719 21.4733L50.0618 18.7768Z" fill="#029BC5"/>
<path d="M105.733 17.5125L57.8086 47.5813L29.4553 58.8259L14.9955 61.6906L13.4047 58.9967L93.2872 9.8403C95.6678 8.36907 98.3198 7.46603 100.975 7.22285C102.138 7.12257 103.286 7.16111 104.393 7.33708C105.375 7.4854 106.306 7.77151 107.159 8.18693C108.11 8.6576 109.922 8.71187 110.509 9.64962C110.511 9.64811 111.895 13.9533 105.733 17.5125Z" fill="#E1E6E9"/>
<path d="M58.4439 43.6027L37.7114 76.5431C37.4525 77.0058 37.6062 77.524 38.0544 77.7004C38.3295 77.8087 38.6661 77.7659 38.9489 77.5868L44.226 74.2502C45.241 73.6082 46.1398 72.7927 46.8667 71.8543L87.0734 24.7426L58.4439 43.6027Z" fill="#029BC5"/>
<path d="M6.12749 42.5029C5.78165 42.3851 5.37008 42.4462 5.02266 42.6667L0.660463 45.4356C0.0660817 45.8126 -0.170767 46.5374 0.131266 47.0547C0.188813 47.1531 0.263564 47.2396 0.353165 47.3109L12.575 57.0664L25.4251 49.0669L6.12749 42.5029Z" fill="#029BC5"/>
<path d="M16.6714 58.8251L10.0934 68.007C9.99691 68.1389 10.0196 68.3046 10.144 68.3768C10.2337 68.4288 10.3561 68.4194 10.4557 68.3529L14.5322 65.7784C14.5639 65.7584 14.5926 65.7333 14.6163 65.7047L24.228 54.0572L16.6714 58.8251Z" fill="#029BC5"/>
<path d="M103.607 7.73296C102.467 7.55046 101.284 7.51149 100.086 7.61641C98.92 9.24136 98.1748 11.0667 97.9246 12.9105C97.9063 13.2809 98.2058 13.5475 98.5938 13.5059C98.7144 13.4929 98.8344 13.4507 98.9423 13.383L106.455 8.61536C105.577 8.18369 104.617 7.88662 103.607 7.73296Z" fill="#029BC5"/>
<path d="M87.2348 16.5001L92.1396 13.4128L96.7083 21.1573L91.8035 24.2446L87.2348 16.5001Z" fill="#D5D6DB"/>
<path d="M84.1484 19.5631C83.5574 19.9362 83.3211 20.6535 83.6212 21.165L84.1073 21.9937C84.4271 22.4921 85.1572 22.5798 85.7381 22.1893C86.2909 21.8175 86.5135 21.1417 86.2471 20.6427L85.7609 19.814C85.4611 19.303 84.7395 19.1905 84.1484 19.5631Z" fill="#3A556A"/>
<path d="M79.7399 22.2917C79.1489 22.6648 78.9126 23.3821 79.2127 23.8936L79.6988 24.7222C80.0186 25.2207 80.7486 25.3084 81.3295 24.9179C81.8824 24.5461 82.105 23.8703 81.8386 23.3713L81.3524 22.5426C81.0524 22.0317 80.3307 21.9193 79.7399 22.2917Z" fill="#3A556A"/>
<path d="M75.3299 25.0212C74.7395 25.3948 74.5041 26.1112 74.804 26.6222L75.2901 27.4509C75.6099 27.9493 76.3399 28.0369 76.9208 27.6465C77.4736 27.2747 77.6963 26.5989 77.4299 26.0999L76.9437 25.2713C76.6436 24.7598 75.9212 24.6479 75.3299 25.0212Z" fill="#3A556A"/>
<path d="M70.9215 27.7497C70.3311 28.1233 70.0957 28.8397 70.3955 29.3508L70.8817 30.1794C71.2015 30.6779 71.9315 30.7656 72.5124 30.3751C73.0652 30.0033 73.2879 29.3275 73.0214 28.8285L72.5353 27.9998C72.235 27.4885 71.5126 27.3765 70.9215 27.7497Z" fill="#3A556A"/>
<path d="M66.5135 30.4785C65.9228 30.8523 65.6872 31.569 65.9872 32.0803L66.4736 32.9093C66.7735 33.4203 67.4956 33.5322 68.0865 33.1592C68.6774 32.7862 68.9133 32.0696 68.6134 31.5585L68.127 30.7295C67.8279 30.218 67.106 30.1053 66.5148 30.4777C66.5143 30.478 66.514 30.4782 66.5135 30.4785Z" fill="#3A556A"/>
<path d="M62.105 33.2071C61.5142 33.5809 61.2787 34.2976 61.5787 34.8088L62.0651 35.6379C62.365 36.1489 63.0871 36.2608 63.678 35.8878C64.2689 35.5148 64.5048 34.7982 64.2049 34.2871L63.7185 33.4581C63.4193 32.9466 62.6975 32.8339 62.1062 33.2063C62.1057 33.2066 62.1052 33.2069 62.105 33.2071Z" fill="#3A556A"/>
<path d="M57.6962 35.9357C57.1055 36.3095 56.87 37.0262 57.17 37.5375L57.6564 38.3665C57.957 38.877 58.6794 38.9878 59.2697 38.6144C59.8589 38.2415 60.0943 37.5264 59.7959 37.0159L59.3094 36.187C59.0097 35.6755 58.2876 35.563 57.6962 35.9357Z" fill="#3A556A"/>
<path d="M53.2875 38.6644C52.6968 39.0382 52.4613 39.7549 52.7613 40.2662L53.2477 41.0952C53.5483 41.6058 54.2707 41.7166 54.861 41.3431C55.4502 40.9702 55.6856 40.2551 55.3872 39.7446L54.9007 38.9156C54.601 38.4042 53.8789 38.2917 53.2875 38.6644Z" fill="#3A556A"/>
<path d="M48.8791 41.3929C48.2884 41.7667 48.0529 42.4834 48.3528 42.9947L48.8393 43.8237C49.1399 44.3342 49.8623 44.445 50.4526 44.0716C51.0418 43.6987 51.2772 42.9836 50.9787 42.4731L50.4923 41.6441C50.1923 41.1329 49.4703 41.0204 48.8791 41.3929Z" fill="#3A556A"/>
<path d="M44.4692 44.1223C43.8783 44.4953 43.6424 45.212 43.9423 45.723L44.4294 46.5531C44.73 47.0637 45.4524 47.1745 46.0427 46.801C46.6319 46.4281 46.8673 45.713 46.5688 45.2025L46.0824 44.3735C45.7827 43.8621 45.0606 43.7496 44.4692 44.1223Z" fill="#3A556A"/>
<path d="M40.0619 46.8501C39.471 47.2231 39.2351 47.9398 39.535 48.4508L40.022 49.2809C40.3227 49.7914 41.0451 49.9022 41.6354 49.5288C42.2246 49.1559 42.46 48.4408 42.1616 47.9303L41.6751 47.1013C41.3751 46.5901 40.653 46.4776 40.0619 46.8501Z" fill="#3A556A"/>
</svg>
