<svg width="97" height="253" viewBox="0 0 97 253" fill="none" xmlns="http://www.w3.org/2000/svg">
<path d="M8.45829 13.7344C15.4851 5.21797 33.2529 -7.87601 48.1095 7.87935C62.9662 23.6347 42.9231 53.1228 31.0444 65.8974C25.1888 69.4459 12.9755 75.4784 10.9679 71.2202C8.45828 65.8974 6.95254 54.7196 27.531 45.1387C40.7481 39.4611 69.2903 33.4286 77.7225 54.7196C81.5705 63.9458 82.2397 85.3787 54.1325 97.3017L18.9985 112.738M18.9985 112.738C5.6141 113.274 -13.626 106.892 16.4889 77.0752C26.0253 72.4622 49.1134 63.1296 65.1747 62.7038C74.3764 64.6555 92.0773 74.3074 89.2666 97.3017C89.6012 101.915 83.344 113.376 55.6383 122.319C49.2807 123.738 35.0598 126.683 29.0368 127.109L7.45451 130.303L18.9985 112.738ZM18.9985 112.738C27.781 110.254 48.5086 106.031 61.1594 109.012C76.9728 112.738 83.2436 109.544 95.7915 130.303C97.9664 140.948 96.3938 162.772 72.7034 164.901C49.013 167.03 33.7214 162.949 29.0368 160.643V140.948M29.0368 140.948C46.2692 142.545 83.2436 141.374 93.2819 123.915C98.1337 111.496 98.5018 86.1239 61.1594 83.9948C52.1249 84.3497 32.8514 85.4852 28.033 87.1885L29.0368 124.98C46.6038 126.577 83.5448 134.135 90.7723 151.594C94.6203 161.707 95.8919 182.998 70.1938 187.256C60.6575 187.611 39.0752 186.298 29.0368 178.208M29.0368 140.948V178.208M29.0368 140.948C39.9116 143.61 63.8697 150.955 72.7034 159.046C83.4109 167.917 99.1041 189.918 76.2168 206.951C69.0227 209.612 49.9164 211.741 31.0444 198.966M29.0368 178.208L31.0444 198.966M29.0368 178.208C41.0828 186.724 65.6766 207.376 67.6843 221.854C68.5208 230.726 66.2789 249.213 50.6192 252.194C46.6038 252.904 36.6659 252.833 29.0368 246.871L31.0444 198.966" stroke="#84829A"/>
</svg>
