<svg width="20" height="20" viewBox="0 0 20 20" fill="none" xmlns="http://www.w3.org/2000/svg">
<path d="M18.0682 2.76032L11.1932 17.7603C11.1357 17.886 11.0381 17.989 10.9158 18.0533C10.7935 18.1176 10.6533 18.1396 10.5172 18.1158C10.3811 18.092 10.2567 18.0237 10.1635 17.9217C10.0703 17.8196 10.0135 17.6896 10.0021 17.5519L9.42083 10.5789L2.44789 9.99769C2.31017 9.98625 2.18013 9.92949 2.0781 9.83629C1.97607 9.74308 1.90781 9.61869 1.88399 9.48257C1.86017 9.34645 1.88213 9.20627 1.94645 9.08395C2.01077 8.96164 2.11381 8.86409 2.23945 8.80657L17.2395 1.93157C17.3554 1.87842 17.4849 1.86203 17.6104 1.8846C17.736 1.90716 17.8516 1.9676 17.9418 2.0578C18.032 2.148 18.0924 2.26363 18.115 2.38918C18.1375 2.51472 18.1212 2.64417 18.068 2.76013L18.0682 2.76032Z" fill="#080809"/>
</svg>
