<svg width="243" height="274" viewBox="0 0 243 274" fill="none" xmlns="http://www.w3.org/2000/svg">
<path d="M188.647 86.5168C242.636 86.5168 286.348 127.648 286.348 178.321C286.347 228.993 242.635 270.123 188.647 270.123C134.66 270.123 90.9475 228.993 90.9473 178.321C90.9473 127.648 134.659 86.517 188.647 86.5168Z" stroke="#6246E5"/>
<path d="M180.896 65.8699C241.306 65.8699 290.226 111.895 290.226 168.604C290.225 225.314 241.306 271.338 180.896 271.338C120.485 271.337 71.5666 225.314 71.5664 168.604C71.5664 111.895 120.485 65.87 180.896 65.8699Z" stroke="#6246E5"/>
<path d="M174.435 48.2595C240.554 48.2595 294.102 98.634 294.102 160.71C294.102 222.785 240.554 273.16 174.435 273.16C108.315 273.16 54.7686 222.785 54.7686 160.71C54.7686 98.634 108.315 48.2597 174.435 48.2595Z" stroke="#6246E5"/>
<path d="M167.974 28.2197C239.089 28.2197 296.685 82.4008 296.685 149.172C296.685 215.943 239.089 270.123 167.974 270.123C96.8595 270.123 39.2634 215.943 39.2632 149.172C39.2632 82.4008 96.8594 28.2198 167.974 28.2197Z" stroke="#6246E5"/>
<path d="M161.836 8.7876C237.768 8.7876 299.269 66.6384 299.269 137.937C299.269 209.236 237.768 267.087 161.836 267.087C85.9048 267.087 24.4038 209.236 24.4038 137.937C24.404 66.6385 85.905 8.78771 161.836 8.7876Z" stroke="#6246E5"/>
<path d="M151.5 -16.7173C234.925 -16.7173 302.5 46.8434 302.5 125.185C302.5 203.527 234.925 267.087 151.5 267.087C68.0754 267.087 0.500097 203.527 0.5 125.185C0.5 46.8434 68.0754 -16.7173 151.5 -16.7173Z" stroke="#6246E5"/>
</svg>
