<svg width="363" height="284" viewBox="0 0 363 284" fill="none" xmlns="http://www.w3.org/2000/svg">
<path d="M245.583 242.471C245.583 311.923 191.59 368.188 125.032 368.188C58.4734 368.188 4.482 311.923 4.48201 242.471C4.48203 173.019 58.4734 116.753 125.032 116.753C191.59 116.753 245.583 173.019 245.583 242.471Z" stroke="#6246E5"/>
<path d="M272.66 232.506C272.66 310.213 212.249 373.17 137.774 373.17C63.2987 373.17 2.88943 310.213 2.88923 232.506C2.88924 154.8 63.2986 91.8416 137.774 91.8413C212.25 91.8413 272.66 154.8 272.66 232.506Z" stroke="#6246E5"/>
<path d="M295.755 224.203C295.755 309.247 229.641 378.153 148.128 378.153C66.6153 378.153 0.500297 309.247 0.500071 224.203C0.500075 139.158 66.6151 70.2517 148.128 70.2517C229.641 70.252 295.755 139.159 295.755 224.203Z" stroke="#6246E5"/>
<path d="M322.036 215.899C322.036 307.364 250.93 381.475 163.259 381.475C75.5889 381.475 4.48206 307.364 4.482 215.899C4.48201 124.434 75.5888 50.3228 163.259 50.3228C250.93 50.323 322.036 124.434 322.036 215.899Z" stroke="#6246E5"/>
<path d="M347.52 208.01C347.52 305.666 271.6 384.796 177.992 384.796C84.3837 384.796 8.46442 305.666 8.46443 208.01C8.46446 110.354 84.3837 31.2241 177.992 31.2239C271.6 31.2239 347.52 110.354 347.52 208.01Z" stroke="#6246E5"/>
<path d="M380.968 194.725C380.968 302.011 297.561 388.948 194.716 388.948C91.8716 388.948 8.4644 302.011 8.46418 194.725C8.46419 87.4377 91.8715 0.500004 194.716 0.500009C297.561 0.500056 380.968 87.4377 380.968 194.725Z" stroke="#6246E5"/>
</svg>
