<svg width="54" height="15" viewBox="0 0 54 15" fill="none" xmlns="http://www.w3.org/2000/svg">
<path d="M5.784 2.592H2.976V3.712H4.472C4.272 4.248 3.784 4.576 3.04 4.576C1.952 4.576 1.28 3.88 1.28 2.928C1.28 1.944 1.984 1.248 2.928 1.248C3.56 1.248 4.064 1.536 4.296 1.904L5.384 1.28C4.912 0.528 4.008 0 2.936 0C1.288 0 0 1.296 0 2.92C0 4.528 1.264 5.824 3.024 5.824C4.592 5.824 5.784 4.784 5.784 3.072V2.592Z" fill="white"/>
<path d="M7.38562 4.48V3.488H9.38562V2.272H7.38562V1.344H9.58562V0.112H6.10563V5.712H9.62562V4.48H7.38562Z" fill="white"/>
<path d="M13.7078 0.112H9.54781V1.344H10.9878V5.712H12.2678V1.344H13.7078V0.112Z" fill="white"/>
<path d="M15.4681 0.112V5.712H16.7481V0.112H15.4681Z" fill="white"/>
<path d="M21.0703 0.112H16.9103V1.344H18.3503V5.712H19.6303V1.344H21.0703V0.112Z" fill="white"/>
<path d="M25.5026 5.824C27.1106 5.824 28.4146 4.56 28.4146 2.912C28.4146 1.264 27.1106 0 25.5026 0C23.8946 0 22.5906 1.264 22.5906 2.912C22.5906 4.56 23.8946 5.824 25.5026 5.824ZM25.5026 4.576C24.5906 4.576 23.8706 3.912 23.8706 2.912C23.8706 1.912 24.5906 1.248 25.5026 1.248C26.4146 1.248 27.1346 1.912 27.1346 2.912C27.1346 3.912 26.4146 4.576 25.5026 4.576Z" fill="white"/>
<path d="M31.8553 0.112V3.152L29.6953 0.112H28.7353V5.712H30.0153V2.672L32.1753 5.712H33.1353V0.112H31.8553Z" fill="white"/>
<path d="M5.784 12.104V12.32C5.784 13.0187 5.536 13.608 5.04 14.088C4.544 14.5627 3.89067 14.8 3.08 14.8C2.22667 14.8 1.52267 14.5227 0.968 13.968C0.413333 13.408 0.136 12.7227 0.136 11.912C0.136 11.1013 0.410667 10.4187 0.96 9.864C1.50933 9.304 2.20533 9.024 3.048 9.024C3.56 9.024 4.02933 9.14667 4.456 9.392C4.888 9.63733 5.22133 9.96533 5.456 10.376L5.08 10.6C4.89333 10.248 4.616 9.96533 4.248 9.752C3.88533 9.53867 3.48533 9.432 3.048 9.432C2.32267 9.432 1.72533 9.672 1.256 10.152C0.792 10.6267 0.56 11.2133 0.56 11.912C0.56 12.6107 0.794667 13.2 1.264 13.68C1.73333 14.1547 2.33867 14.392 3.08 14.392C3.736 14.392 4.26667 14.2133 4.672 13.856C5.07733 13.4987 5.304 13.048 5.352 12.504H2.976V12.104H5.784Z" fill="white"/>
<path d="M11.4626 13.96C10.9026 14.52 10.22 14.8 9.41463 14.8C8.60929 14.8 7.92662 14.52 7.36662 13.96C6.80662 13.3947 6.52663 12.712 6.52663 11.912C6.52663 11.112 6.80662 10.432 7.36662 9.872C7.92662 9.30667 8.60929 9.024 9.41463 9.024C10.22 9.024 10.9026 9.30667 11.4626 9.872C12.0226 10.432 12.3026 11.112 12.3026 11.912C12.3026 12.712 12.0226 13.3947 11.4626 13.96ZM7.66263 13.672C8.14263 14.152 8.72663 14.392 9.41463 14.392C10.1026 14.392 10.684 14.152 11.1586 13.672C11.6386 13.1867 11.8786 12.6 11.8786 11.912C11.8786 11.224 11.6386 10.64 11.1586 10.16C10.684 9.67467 10.1026 9.432 9.41463 9.432C8.72663 9.432 8.14263 9.67467 7.66263 10.16C7.18796 10.64 6.95062 11.224 6.95062 11.912C6.95062 12.6 7.18796 13.1867 7.66263 13.672Z" fill="white"/>
<path d="M17.9939 13.96C17.4339 14.52 16.7512 14.8 15.9459 14.8C15.1405 14.8 14.4579 14.52 13.8979 13.96C13.3379 13.3947 13.0579 12.712 13.0579 11.912C13.0579 11.112 13.3379 10.432 13.8979 9.872C14.4579 9.30667 15.1405 9.024 15.9459 9.024C16.7512 9.024 17.4339 9.30667 17.9939 9.872C18.5539 10.432 18.8339 11.112 18.8339 11.912C18.8339 12.712 18.5539 13.3947 17.9939 13.96ZM14.1939 13.672C14.6739 14.152 15.2579 14.392 15.9459 14.392C16.6339 14.392 17.2152 14.152 17.6899 13.672C18.1699 13.1867 18.4099 12.6 18.4099 11.912C18.4099 11.224 18.1699 10.64 17.6899 10.16C17.2152 9.67467 16.6339 9.432 15.9459 9.432C15.2579 9.432 14.6739 9.67467 14.1939 10.16C13.7192 10.64 13.4819 11.224 13.4819 11.912C13.4819 12.6 13.7192 13.1867 14.1939 13.672Z" fill="white"/>
<path d="M25.2371 12.104V12.32C25.2371 13.0187 24.9891 13.608 24.4931 14.088C23.9971 14.5627 23.3438 14.8 22.5331 14.8C21.6798 14.8 20.9758 14.5227 20.4211 13.968C19.8665 13.408 19.5891 12.7227 19.5891 11.912C19.5891 11.1013 19.8638 10.4187 20.4131 9.864C20.9625 9.304 21.6585 9.024 22.5011 9.024C23.0131 9.024 23.4825 9.14667 23.9091 9.392C24.3411 9.63733 24.6745 9.96533 24.9091 10.376L24.5331 10.6C24.3465 10.248 24.0691 9.96533 23.7011 9.752C23.3385 9.53867 22.9385 9.432 22.5011 9.432C21.7758 9.432 21.1785 9.672 20.7091 10.152C20.2451 10.6267 20.0131 11.2133 20.0131 11.912C20.0131 12.6107 20.2478 13.2 20.7171 13.68C21.1865 14.1547 21.7918 14.392 22.5331 14.392C23.1891 14.392 23.7198 14.2133 24.1251 13.856C24.5305 13.4987 24.7571 13.048 24.8051 12.504H22.4291V12.104H25.2371Z" fill="white"/>
<path d="M26.7237 14.312H29.3638V14.712H26.2997V9.112H26.7237V14.312Z" fill="white"/>
<path d="M30.6691 14.312H33.4691V14.712H30.2451V9.112H33.4291V9.512H30.6691V11.688H33.2291V12.088H30.6691V14.312Z" fill="white"/>
<path d="M38.5475 9.112C39.0488 9.112 39.4648 9.27733 39.7955 9.608C40.1262 9.93867 40.2915 10.352 40.2915 10.848C40.2915 11.344 40.1262 11.7573 39.7955 12.088C39.4648 12.4133 39.0488 12.576 38.5475 12.576H37.0675V14.712H36.6435V9.112H38.5475ZM38.5475 12.176C38.9315 12.176 39.2462 12.0507 39.4915 11.8C39.7422 11.5493 39.8675 11.232 39.8675 10.848C39.8675 10.4587 39.7422 10.1387 39.4915 9.888C39.2462 9.63733 38.9315 9.512 38.5475 9.512H37.0675V12.176H38.5475Z" fill="white"/>
<path d="M41.7628 14.312H44.4028V14.712H41.3388V9.112H41.7628V14.312Z" fill="white"/>
<path d="M49.2084 14.712L48.6644 13.288H45.8564L45.3124 14.712H44.8644L47.0404 9.112H47.4884L49.6564 14.712H49.2084ZM46.0164 12.888H48.5124L47.2644 9.632L46.0164 12.888Z" fill="white"/>
<path d="M53.6409 9.112L51.6009 12.408V14.712H51.1769V12.408L49.1369 9.112H49.6169L51.3929 12L53.1609 9.112H53.6409Z" fill="white"/>
</svg>
