<svg width="39" height="18" viewBox="0 0 39 18" fill="none" xmlns="http://www.w3.org/2000/svg">
<path d="M18.4434 8.84961L18.7871 9.09082L28.6133 15.9697L38.3564 14.1143L34.1709 0.62793L18.6494 5.47754L18.4443 5.54102L18.2568 5.4375L9.40723 0.521484L0.533203 1.92285L1.47168 14.126L10.3604 16.9326L18.4434 8.84961Z" fill="#F1A501"/>
<path d="M18.4434 8.84961L18.7871 9.09082L28.6133 15.9697L38.3564 14.1143L34.1709 0.62793L18.6494 5.47754L18.4443 5.54102L18.2568 5.4375L9.40723 0.521484L0.533203 1.92285L1.47168 14.126L10.3604 16.9326L18.4434 8.84961Z" stroke="black"/>
<path d="M18.4434 8.84961L18.7871 9.09082L28.6133 15.9697L38.3564 14.1143L34.1709 0.62793L18.6494 5.47754L18.4443 5.54102L18.2568 5.4375L9.40723 0.521484L0.533203 1.92285L1.47168 14.126L10.3604 16.9326L18.4434 8.84961Z" stroke="black" stroke-opacity="0.2"/>
</svg>
