<svg width="14" height="14" viewBox="0 0 14 14" fill="none" xmlns="http://www.w3.org/2000/svg">
<path d="M13.5 3.56123e-08C13.4224 -2.92608e-05 13.3458 0.0180173 13.2763 0.0527336L9.48735 1.94771L5.20293 0.0432416C5.19593 0.0402533 5.18793 0.039726 5.18043 0.0367378C5.16115 0.0295308 5.14143 0.0235251 5.12143 0.0187497C5.10153 0.0133885 5.08132 0.00919911 5.06093 0.00624017C5.02032 0.00290038 4.97951 0.00290038 4.93894 0.00624017C4.91855 0.00919911 4.89833 0.0133885 4.87844 0.0187497C4.85843 0.0235251 4.83871 0.0295308 4.81944 0.0367378C4.81194 0.039726 4.80394 0.040224 4.79694 0.0432416L0.297007 2.04322C0.116365 2.12343 -2.92909e-05 2.30255 5.52912e-09 2.50019V13.5C8.78948e-05 13.6692 0.0856628 13.8268 0.227487 13.919C0.36934 14.0114 0.548253 14.0257 0.702968 13.957L4.9999 12.047L9.29684 13.957C9.30434 13.96 9.31234 13.957 9.31984 13.9615C9.44089 14.0157 9.57984 14.0126 9.69832 13.953C9.70632 13.9496 9.71531 13.953 9.72331 13.9475L13.7232 11.9476C13.8927 11.8629 13.9998 11.6896 13.9997 11.5V0.500237C13.9999 0.224088 13.7761 0.000117221 13.5 3.56123e-08ZM4.49993 11.1751L0.999975 12.7305V2.8252L4.49993 1.26971V11.1751ZM8.99986 12.7305L5.49991 11.1751V1.26971L8.99986 2.82517V12.7305ZM12.9998 11.1911L9.99984 12.691V2.80918L12.9998 1.3092V11.1911Z" fill="#84829A"/>
</svg>
