<svg width="14" height="14" viewBox="0 0 14 14" fill="none" xmlns="http://www.w3.org/2000/svg">
<g clip-path="url(#clip0_1_199)">
<path d="M13.6545 0.150827C13.2856 0.0428744 4.26257 -0.855475 1.09373 3.42567C-0.30971 5.32223 -0.330792 7.9221 1.0234 11.1525C0.679886 11.8655 0.37916 12.6166 0.134078 13.4091C0.0595667 13.6499 0.194344 13.9052 0.434886 13.9795C0.47973 13.9934 0.525148 14 0.569992 14C0.76446 14 0.94501 13.8744 1.00528 13.6787C3.42049 5.87028 11.2694 2.09267 13.6763 1.13835C13.9106 1.0454 14.2236 0.317405 13.6545 0.150827Z" fill="#84829A"/>
<path d="M2.47192 12.1297C3.77832 12.6778 5.08453 12.9587 6.29922 12.9587C7.39103 12.9587 8.40923 12.7342 9.28663 12.279C11.0525 11.3629 12.1315 9.61075 12.4071 7.21126C12.6878 4.76584 13.0373 3.2341 13.3289 2.29706C10.7336 3.49422 5.16878 6.59734 2.47192 12.1297Z" fill="#84829A"/>
</g>
<defs>
<clipPath id="clip0_1_199">
<rect width="14" height="14" fill="white"/>
</clipPath>
</defs>
</svg>
