<svg width="23" height="19" viewBox="0 0 23 19" fill="none" xmlns="http://www.w3.org/2000/svg">
<path d="M3.75 10.5C3.45333 10.5 3.16332 10.588 2.91665 10.7528C2.66997 10.9176 2.47771 11.1519 2.36418 11.426C2.25065 11.7001 2.22094 12.0017 2.27882 12.2926C2.3367 12.5836 2.47956 12.8509 2.68934 13.0607C2.89912 13.2704 3.16639 13.4133 3.45737 13.4712C3.74834 13.5291 4.04994 13.4994 4.32403 13.3858C4.59812 13.2723 4.83238 13.08 4.99721 12.8334C5.16203 12.5867 5.25 12.2967 5.25 12C5.25 11.6022 5.09197 11.2206 4.81066 10.9393C4.52936 10.658 4.14783 10.5 3.75 10.5ZM3.75 12.75C3.60167 12.75 3.45666 12.706 3.33332 12.6236C3.20999 12.5412 3.11386 12.4241 3.05709 12.287C3.00033 12.15 2.98547 11.9992 3.01441 11.8537C3.04335 11.7082 3.11478 11.5746 3.21967 11.4697C3.32456 11.3648 3.4582 11.2934 3.60368 11.2644C3.74917 11.2355 3.89997 11.2503 4.03701 11.3071C4.17406 11.3639 4.29119 11.46 4.3736 11.5833C4.45601 11.7067 4.5 11.8517 4.5 12C4.5 12.1989 4.42098 12.3897 4.28033 12.5303C4.13968 12.671 3.94891 12.75 3.75 12.75Z" fill="white"/>
<path d="M18.75 10.5C18.4533 10.5 18.1633 10.588 17.9166 10.7528C17.67 10.9176 17.4777 11.1519 17.3642 11.426C17.2506 11.7001 17.2209 12.0017 17.2788 12.2926C17.3367 12.5836 17.4796 12.8509 17.6893 13.0607C17.8991 13.2704 18.1664 13.4133 18.4574 13.4712C18.7483 13.5291 19.0499 13.4994 19.324 13.3858C19.5981 13.2723 19.8324 13.08 19.9972 12.8334C20.162 12.5867 20.25 12.2967 20.25 12C20.25 11.6022 20.092 11.2206 19.8107 10.9393C19.5293 10.658 19.1478 10.5 18.75 10.5ZM18.75 12.75C18.6017 12.75 18.4567 12.706 18.3333 12.6236C18.21 12.5412 18.1139 12.4241 18.0571 12.287C18.0003 12.15 17.9855 11.9992 18.0144 11.8537C18.0433 11.7082 18.1148 11.5746 18.2197 11.4697C18.3246 11.3648 18.4582 11.2934 18.6037 11.2644C18.7492 11.2355 18.9 11.2503 19.037 11.3071C19.1741 11.3639 19.2912 11.46 19.3736 11.5833C19.456 11.7067 19.5 11.8517 19.5 12C19.5 12.1989 19.421 12.3897 19.2803 12.5303C19.1397 12.671 18.9489 12.75 18.75 12.75Z" fill="white"/>
<path d="M7.875 12.375H14.625V13.125H7.875V12.375Z" fill="white"/>
<path d="M7.875 10.875H14.625V11.625H7.875V10.875Z" fill="white"/>
<path d="M10.125 5.25H12.375V6H10.125V5.25Z" fill="white"/>
<path d="M22.5 8.625V7.875C22.4991 7.57691 22.3803 7.29127 22.1695 7.08049C21.9587 6.8697 21.6731 6.75089 21.375 6.75H19.89L19.1138 4.0275L18.8812 3.10125C18.8202 2.85804 18.6797 2.64219 18.482 2.48796C18.2843 2.33374 18.0407 2.24999 17.79 2.25H14.625V0.75C14.6244 0.55127 14.5452 0.360849 14.4047 0.220326C14.2642 0.0798018 14.0737 0.000593523 13.875 0H8.625C8.42627 0.000593523 8.23585 0.0798018 8.09533 0.220326C7.9548 0.360849 7.87559 0.55127 7.875 0.75V2.25H4.71C4.45926 2.24999 4.21569 2.33374 4.01799 2.48796C3.82028 2.64219 3.67976 2.85804 3.61875 3.10125L3.39 4.02375L2.61 6.75H1.125C0.826905 6.75089 0.541274 6.8697 0.330488 7.08049C0.119703 7.29127 0.000890284 7.57691 0 7.875V8.625C0.000607289 8.81497 0.0494402 9.00168 0.141922 9.16762C0.234403 9.33356 0.367504 9.4733 0.52875 9.57375C0.18975 9.92208 4.67283e-05 10.3889 0 10.875V15.375C0.000516989 15.5323 0.0341789 15.6878 0.098792 15.8312C0.163405 15.9746 0.257519 16.1029 0.375 16.2075V17.625C0.37589 17.9231 0.494703 18.2087 0.705488 18.4195C0.916274 18.6303 1.20191 18.7491 1.5 18.75H4.5C4.79809 18.7491 5.08373 18.6303 5.29451 18.4195C5.5053 18.2087 5.62411 17.9231 5.625 17.625V16.5H16.875V17.625C16.8759 17.9231 16.9947 18.2087 17.2055 18.4195C17.4163 18.6303 17.7019 18.7491 18 18.75H21C21.2981 18.7491 21.5837 18.6303 21.7945 18.4195C22.0053 18.2087 22.1241 17.9231 22.125 17.625V16.2075C22.2425 16.1029 22.3366 15.9746 22.4012 15.8312C22.4658 15.6878 22.4995 15.5323 22.5 15.375V10.875C22.5 10.3889 22.3102 9.92208 21.9713 9.57375C22.1325 9.4733 22.2656 9.33356 22.3581 9.16762C22.4506 9.00168 22.4994 8.81497 22.5 8.625ZM8.625 0.75H13.875V2.25H8.625V0.75ZM4.34625 3.285C4.36635 3.2037 4.41309 3.13147 4.47901 3.07981C4.54493 3.02816 4.62625 3.00006 4.71 3H17.79C17.8737 3.00006 17.9551 3.02816 18.021 3.07981C18.0869 3.13147 18.1336 3.2037 18.1537 3.285L18.27 3.75H4.23L4.34625 3.285ZM4.03125 4.5H18.4688L19.7512 9H8.96625C8.87811 8.47594 8.60712 8.00007 8.20138 7.65687C7.79565 7.31367 7.28142 7.12536 6.75 7.12536C6.21858 7.12536 5.70435 7.31367 5.29862 7.65687C4.89288 8.00007 4.62189 8.47594 4.53375 9H2.74875L4.03125 4.5ZM8.1975 9H5.3025C5.38438 8.67822 5.57114 8.3929 5.83327 8.18912C6.09541 7.98533 6.41797 7.87469 6.75 7.87469C7.08203 7.87469 7.40459 7.98533 7.66673 8.18912C7.92886 8.3929 8.11562 8.67822 8.1975 9ZM0.75 7.875C0.75 7.77554 0.789509 7.68016 0.859835 7.60983C0.930161 7.53951 1.02554 7.5 1.125 7.5H2.39625L1.96875 9H1.125C1.02554 9 0.930161 8.96049 0.859835 8.89017C0.789509 8.81984 0.75 8.72446 0.75 8.625V7.875ZM4.875 17.625C4.875 17.7245 4.83549 17.8198 4.76516 17.8902C4.69484 17.9605 4.59946 18 4.5 18H1.5C1.40054 18 1.30516 17.9605 1.23484 17.8902C1.16451 17.8198 1.125 17.7245 1.125 17.625V16.5H4.875V17.625ZM21.375 17.625C21.375 17.7245 21.3355 17.8198 21.2652 17.8902C21.1948 17.9605 21.0995 18 21 18H18C17.9005 18 17.8052 17.9605 17.7348 17.8902C17.6645 17.8198 17.625 17.7245 17.625 17.625V16.5H21.375V17.625ZM21.75 15.375C21.75 15.4745 21.7105 15.5698 21.6402 15.6402C21.5698 15.7105 21.4745 15.75 21.375 15.75H1.125C1.02554 15.75 0.930161 15.7105 0.859835 15.6402C0.789509 15.5698 0.75 15.4745 0.75 15.375V15H21.75V15.375ZM21.75 14.25H0.75V10.875C0.75089 10.5769 0.869703 10.2913 1.08049 10.0805C1.29127 9.8697 1.57691 9.75089 1.875 9.75H20.625C20.9231 9.75089 21.2087 9.8697 21.4195 10.0805C21.6303 10.2913 21.7491 10.5769 21.75 10.875V14.25ZM21.75 8.625C21.75 8.72446 21.7105 8.81984 21.6402 8.89017C21.5698 8.96049 21.4745 9 21.375 9H20.5312L20.1038 7.5H21.375C21.4745 7.5 21.5698 7.53951 21.6402 7.60983C21.7105 7.68016 21.75 7.77554 21.75 7.875V8.625Z" fill="white"/>
</svg>
