<svg width="23" height="18" viewBox="0 0 23 18" fill="none" xmlns="http://www.w3.org/2000/svg">
<path d="M19.8455 17.8597C19.3953 17.8689 18.9531 17.7401 18.5783 17.4906C18.2994 17.3083 17.9733 17.2112 17.6401 17.2112C17.3068 17.2112 16.9808 17.3083 16.7018 17.4906C16.3232 17.7316 15.8837 17.8597 15.4348 17.8597C14.986 17.8597 14.5465 17.7316 14.1679 17.4906C13.8889 17.3081 13.5628 17.2109 13.2294 17.2109C12.8961 17.2109 12.57 17.3081 12.291 17.4906C11.9124 17.7316 11.4729 17.8597 11.024 17.8597C10.5752 17.8597 10.1357 17.7316 9.75704 17.4906C9.47827 17.3082 9.15238 17.2111 8.81926 17.2111C8.48614 17.2111 8.16025 17.3082 7.88148 17.4906C7.5382 17.7187 7.1376 17.8455 6.72558 17.8564L6.70288 17.2078C7.00722 17.2006 7.30276 17.1043 7.55294 16.9308C7.93145 16.6898 8.37086 16.5618 8.81958 16.5618C9.26831 16.5618 9.70772 16.6898 10.0862 16.9308C10.3652 17.1132 10.6912 17.2103 11.0245 17.2103C11.3578 17.2103 11.6838 17.1132 11.9628 16.9308C12.3414 16.6896 12.7811 16.5615 13.2301 16.5615C13.679 16.5615 14.1187 16.6896 14.4974 16.9308C14.7763 17.1132 15.1024 17.2103 15.4356 17.2103C15.7689 17.2103 16.095 17.1132 16.3739 16.9308C16.7526 16.6898 17.1921 16.5618 17.6409 16.5618C18.0897 16.5618 18.5292 16.6898 18.9079 16.9308C19.1875 17.1136 19.5143 17.211 19.8484 17.211C20.1825 17.211 20.5093 17.1136 20.7889 16.9308C21.1633 16.6821 21.6047 16.5535 22.0541 16.5624V17.211C21.7195 17.2019 21.3907 17.2997 21.1155 17.4903C20.7398 17.7401 20.2966 17.869 19.8455 17.8597Z" fill="white"/>
<path d="M2.2054 17.8597C1.75534 17.869 1.31323 17.7402 0.938594 17.4907C0.66347 17.2999 0.334649 17.202 0 17.2111V16.5624C0.45017 16.5531 0.892396 16.6819 1.26713 16.9315C1.54211 17.1223 1.87085 17.2203 2.2054 17.2111C2.54011 17.2203 2.86899 17.1222 3.144 16.9312C3.51794 16.6817 3.95944 16.553 4.40886 16.5624C4.8474 16.5526 5.27867 16.6755 5.64616 16.915L5.31892 17.4748C5.05049 17.2941 4.73229 17.2019 4.40886 17.2111C4.07554 17.2021 3.74805 17.2998 3.47416 17.49C3.09909 17.7403 2.65621 17.8694 2.2054 17.8597Z" fill="white"/>
<path d="M19.8464 15.5891C19.3959 15.5983 18.9534 15.4695 18.5783 15.22C18.2991 15.0376 17.9727 14.9404 17.6392 14.9404C17.3056 14.9404 16.9793 15.0376 16.7001 15.22C16.3215 15.461 15.8821 15.589 15.4333 15.589C14.9845 15.589 14.5451 15.461 14.1665 15.22C13.8877 15.0377 13.5617 14.9406 13.2285 14.9406C12.8954 14.9406 12.5694 15.0377 12.2906 15.22C11.912 15.4611 11.4726 15.5891 11.0238 15.5891C10.575 15.5891 10.1355 15.4611 9.75697 15.22C9.47814 15.0377 9.15219 14.9406 8.81903 14.9406C8.48586 14.9406 8.15992 15.0377 7.88108 15.22C7.50646 15.4696 7.06434 15.5985 6.61427 15.5891C6.1642 15.5985 5.72208 15.4696 5.34746 15.22C5.07259 15.0293 4.74396 14.9313 4.40951 14.9405C4.07517 14.9314 3.74667 15.0293 3.47189 15.22C3.09786 15.4694 2.65645 15.5982 2.20703 15.5891C1.75686 15.5985 1.31463 15.4697 0.939892 15.22C0.664467 15.0289 0.335107 14.9309 0 14.9405V14.2918C0.450063 14.2825 0.892172 14.4113 1.26681 14.6609C1.54194 14.8516 1.87076 14.9496 2.20541 14.9405C2.53975 14.9495 2.86825 14.8516 3.14303 14.6609C3.51706 14.4116 3.95847 14.2828 4.40789 14.2918C4.85829 14.2823 5.30079 14.4111 5.67568 14.6609C5.95065 14.8517 6.27939 14.9496 6.61395 14.9405C6.9485 14.9496 7.27724 14.8517 7.55222 14.6609C7.93076 14.4198 8.37023 14.2917 8.81903 14.2917C9.26782 14.2917 9.7073 14.4198 10.0858 14.6609C10.3647 14.8433 10.6907 14.9404 11.0239 14.9404C11.3572 14.9404 11.6832 14.8433 11.9621 14.6609C12.3406 14.4198 12.7801 14.2917 13.2289 14.2917C13.6777 14.2917 14.1171 14.4198 14.4957 14.6609C14.7746 14.8433 15.1006 14.9404 15.4338 14.9404C15.767 14.9404 16.093 14.8433 16.3719 14.6609C16.7508 14.4199 17.1906 14.2919 17.6397 14.2919C18.0888 14.2919 18.5285 14.4199 18.9075 14.6609C19.1868 14.8432 19.5133 14.9403 19.8469 14.9403C20.1805 14.9403 20.5069 14.8432 20.7863 14.6609C21.1613 14.4115 21.6037 14.2827 22.0541 14.2918V14.9405C21.7188 14.931 21.3892 15.0289 21.1135 15.22C20.7386 15.4693 20.2965 15.5981 19.8464 15.5891Z" fill="white"/>
<path d="M19.8455 13.3192C19.3954 13.3284 18.9532 13.1996 18.5784 12.9501C18.3033 12.7593 17.9744 12.6614 17.6398 12.6705C17.3942 12.6621 17.1503 12.7144 16.9299 12.8229L16.6438 12.2392C16.9534 12.0874 17.2951 12.0125 17.6398 12.0209C18.0905 12.0117 18.5332 12.1409 18.9082 12.3909C19.1879 12.5737 19.5147 12.6711 19.8488 12.6711C20.1828 12.6711 20.5097 12.5737 20.7893 12.3909C21.1635 12.142 21.6048 12.0133 22.0542 12.0219V12.6705C21.7196 12.6614 21.3908 12.7592 21.1156 12.9498C20.7399 13.1996 20.2967 13.3285 19.8455 13.3192Z" fill="white"/>
<path d="M15.4314 13.3191C14.9819 13.3285 14.5404 13.1998 14.1665 12.9503C13.8875 12.7679 13.5614 12.6707 13.2281 12.6707C12.8947 12.6707 12.5686 12.7679 12.2896 12.9503C11.911 13.1914 11.4715 13.3194 11.0226 13.3194C10.5738 13.3194 10.1343 13.1914 9.75568 12.9503C9.47673 12.768 9.15068 12.6708 8.81741 12.6708C8.48413 12.6708 8.15809 12.768 7.87914 12.9503C7.50457 13.1995 7.06276 13.3282 6.61297 13.3191C6.16291 13.3284 5.7208 13.1996 5.34616 12.95C5.07104 12.7593 4.74222 12.6613 4.40757 12.6704C4.07424 12.6614 3.74676 12.7592 3.47287 12.9494C3.09816 13.1994 2.65577 13.3284 2.20541 13.3191C1.75534 13.3284 1.31323 13.1996 0.938595 12.95C0.66347 12.7593 0.334649 12.6613 0 12.6704V12.0218C0.45017 12.0124 0.892396 12.1412 1.26714 12.3909C1.54211 12.5817 1.87085 12.6796 2.20541 12.6704C2.54011 12.6796 2.86899 12.5816 3.144 12.3905C3.51794 12.1411 3.95944 12.0123 4.40886 12.0218C4.85893 12.0125 5.30103 12.1413 5.67568 12.3909C5.95065 12.5817 6.27939 12.6796 6.61395 12.6704C6.9486 12.6795 7.27742 12.5816 7.55254 12.3909C7.93116 12.1498 8.37068 12.0218 8.81951 12.0218C9.26835 12.0218 9.70787 12.1498 10.0865 12.3909C10.3654 12.5732 10.6915 12.6703 11.0248 12.6703C11.358 12.6703 11.6841 12.5732 11.963 12.3909C12.3417 12.1496 12.7814 12.0215 13.2303 12.0215C13.6793 12.0215 14.1189 12.1496 14.4976 12.3909C14.7834 12.583 15.1222 12.6807 15.4664 12.6701C15.4914 12.6704 15.5164 12.6691 15.5413 12.6662L15.6276 13.309C15.5625 13.3166 15.4969 13.32 15.4314 13.3191Z" fill="white"/>
<path d="M19.8464 11.0485C19.3959 11.0577 18.9534 10.9289 18.5783 10.6794C18.2991 10.497 17.9727 10.3998 17.6392 10.3998C17.3056 10.3998 16.9793 10.497 16.7001 10.6794C16.3215 10.9204 15.8821 11.0484 15.4333 11.0484C14.9845 11.0484 14.5451 10.9204 14.1665 10.6794C13.8877 10.4971 13.5617 10.4 13.2285 10.4C12.8954 10.4 12.5694 10.4971 12.2906 10.6794C11.912 10.9205 11.4726 11.0485 11.0238 11.0485C10.575 11.0485 10.1355 10.9205 9.75697 10.6794C9.47814 10.4971 9.15219 10.4 8.81903 10.4C8.48586 10.4 8.15992 10.4971 7.88108 10.6794C7.50646 10.9291 7.06434 11.0579 6.61427 11.0485C6.1642 11.0579 5.72208 10.9291 5.34746 10.6794C5.07259 10.4887 4.74396 10.3907 4.40951 10.3999C4.07517 10.3908 3.74667 10.4887 3.47189 10.6794C3.09786 10.9288 2.65645 11.0576 2.20703 11.0485C1.75686 11.0579 1.31463 10.9291 0.939892 10.6794C0.664467 10.4883 0.335107 10.3904 0 10.3999V9.75123C0.450063 9.74193 0.892172 9.87073 1.26681 10.1203C1.54194 10.311 1.87076 10.409 2.20541 10.3999C2.53975 10.409 2.86825 10.311 3.14303 10.1203C3.51706 9.87098 3.95847 9.74218 4.40789 9.75123C4.85829 9.74166 5.30079 9.87048 5.67568 10.1203C5.95065 10.3111 6.27939 10.4091 6.61395 10.3999C6.9485 10.4091 7.27724 10.3111 7.55222 10.1203C7.93076 9.87922 8.37023 9.75115 8.81903 9.75115C9.26782 9.75115 9.7073 9.87922 10.0858 10.1203C10.3647 10.3027 10.6907 10.3998 11.0239 10.3998C11.3572 10.3998 11.6832 10.3027 11.9621 10.1203C12.3406 9.87922 12.7801 9.75115 13.2289 9.75115C13.6777 9.75115 14.1171 9.87922 14.4957 10.1203C14.7746 10.3027 15.1006 10.3998 15.4338 10.3998C15.767 10.3998 16.093 10.3027 16.3719 10.1203C16.7508 9.87931 17.1906 9.75131 17.6397 9.75131C18.0888 9.75131 18.5285 9.87931 18.9075 10.1203C19.1868 10.3026 19.5133 10.3997 19.8469 10.3997C20.1805 10.3997 20.5069 10.3026 20.7863 10.1203C21.1613 9.87088 21.6037 9.7421 22.0541 9.75123V10.3999C21.7188 10.3904 21.3892 10.4884 21.1135 10.6794C20.7386 10.9287 20.2965 11.0575 19.8464 11.0485Z" fill="white"/>
<path d="M15.2248 10.7735L14.6128 10.5588C14.7704 10.1059 14.8348 9.62587 14.8021 9.14749C14.7694 8.66911 14.6402 8.20228 14.4224 7.77511L12.1946 3.41262C12.1726 3.36954 12.1606 3.32209 12.1593 3.27373C12.158 3.22538 12.1675 3.17735 12.1872 3.13316C12.2069 3.08898 12.2362 3.04976 12.273 3.01837C12.3098 2.98698 12.3532 2.96422 12.3999 2.95176L16.8396 1.76798C16.9843 1.73014 17.1082 1.6367 17.1843 1.50799C17.2604 1.37928 17.2827 1.22571 17.2462 1.0807C17.2097 0.935679 17.1174 0.810945 16.9893 0.733633C16.8613 0.656321 16.708 0.632685 16.5626 0.667868L11.1892 1.95219C11.0744 1.97934 10.9673 2.03256 10.8763 2.10774C10.7853 2.18292 10.7128 2.27804 10.6645 2.38573C10.6162 2.49341 10.5933 2.61078 10.5976 2.72873C10.6019 2.84669 10.6334 2.96206 10.6894 3.06592L12.2851 6.03024C12.3256 6.10559 12.3347 6.19386 12.3104 6.27587C12.2861 6.35787 12.2304 6.42695 12.1554 6.46808L10.0959 7.60322L9.78296 7.035L11.5609 6.05489L10.119 3.37338C10.0158 3.18195 9.95806 2.96937 9.95019 2.75206C9.94232 2.53475 9.98454 2.31855 10.0736 2.12016C10.1626 1.92177 10.2961 1.74652 10.4637 1.60796C10.6312 1.46939 10.8285 1.37123 11.04 1.32106L16.4109 0.0370572C16.7235 -0.0419486 17.0548 0.00648876 17.3317 0.171713C17.6087 0.336938 17.8087 0.605415 17.8877 0.918084C17.9667 1.23075 17.9182 1.562 17.753 1.83896C17.5878 2.11591 17.3193 2.31589 17.0066 2.39489L12.9545 3.47489L15.0004 7.47965C15.258 7.98517 15.4107 8.53757 15.4492 9.10363C15.4878 9.66969 15.4115 10.2377 15.2248 10.7735Z" fill="white"/>
<path d="M8.64927 7.66493L4.70801 9.83667L5.0209 10.4045L8.96215 8.23275L8.64927 7.66493Z" fill="white"/>
<path d="M18.1622 8.61608C17.6811 8.61608 17.2108 8.47342 16.8108 8.20614C16.4108 7.93887 16.099 7.55897 15.9149 7.1145C15.7308 6.67004 15.6826 6.18095 15.7765 5.70911C15.8703 5.23726 16.102 4.80385 16.4422 4.46366C16.7824 4.12348 17.2158 3.89182 17.6876 3.79796C18.1595 3.7041 18.6485 3.75227 19.093 3.93638C19.5375 4.12048 19.9174 4.43225 20.1847 4.83227C20.4519 5.23228 20.5946 5.70256 20.5946 6.18365C20.5939 6.82856 20.3374 7.44686 19.8814 7.90288C19.4254 8.3589 18.8071 8.6154 18.1622 8.61608ZM18.1622 4.39987C17.8094 4.39987 17.4645 4.50449 17.1712 4.70049C16.8778 4.8965 16.6492 5.17509 16.5142 5.50103C16.3792 5.82697 16.3438 6.18563 16.4127 6.53165C16.4815 6.87767 16.6514 7.19551 16.9008 7.44498C17.1503 7.69444 17.4681 7.86433 17.8142 7.93316C18.1602 8.00199 18.5188 7.96666 18.8448 7.83165C19.1707 7.69664 19.4493 7.46801 19.6453 7.17467C19.8413 6.88133 19.9459 6.53645 19.9459 6.18365C19.9453 5.71075 19.7572 5.25739 19.4228 4.92299C19.0884 4.5886 18.6351 4.40047 18.1622 4.39987Z" fill="white"/>
</svg>
